<?xml version="1.0" standalone="no"?><!DOCTYPE svg PUBLIC "-//W3C//DTD SVG 1.1//EN" "http://www.w3.org/Graphics/SVG/1.1/DTD/svg11.dtd"><svg t="1606318247203" class="icon" viewBox="0 0 1772 1024" version="1.1" xmlns="http://www.w3.org/2000/svg" p-id="3451" xmlns:xlink="http://www.w3.org/1999/xlink" width="55.375" height="32"><defs><style type="text/css"></style></defs><path d="M1607.949391 0H432.042929a126.818462 126.818462 0 0 0-126.818461 126.818462v446.148923l210.983384-210.983385a107.638154 107.638154 0 0 1 152.260923 0l374.272 374.272 106.653539-106.653538a63.960615 63.960615 0 0 1 90.387692 0l288.649846 288.68923c30.641231 30.641231 18.668308 78.887385-15.517538 95.82277h95.035077a126.818462 126.818462 0 0 0 126.818461-126.818462V126.818462A126.818462 126.818462 0 0 0 1607.949391 0" fill="#F9D11F" p-id="3452"></path><path d="M305.224468 887.335385v-314.368L29.689698 848.502154c-63.330462 63.330462-18.510769 171.716923 71.168 171.716923h1385.393231c9.846154 0 18.865231-2.284308 26.702769-6.065231H432.042929a126.818462 126.818462 0 0 1-126.818461-126.818461" fill="#31EC7C" p-id="3453"></path><path d="M1528.431852 918.331077l-288.68923-288.689231a63.881846 63.881846 0 0 0-90.387693 0l-106.614154 106.653539-374.272-374.272a107.677538 107.677538 0 0 0-152.300307 0l-210.983385 210.944v314.368a126.818462 126.818462 0 0 0 126.818462 126.818461h1080.910769c34.185846-16.935385 46.119385-65.220923 15.517538-95.822769" fill="#2BBB66" p-id="3454"></path><path d="M1429.300775 329.885538a134.380308 134.380308 0 1 1-268.760615 0 134.380308 134.380308 0 0 1 268.760615 0" fill="#FFFFFF" p-id="3455"></path></svg>